<svg width="176" height="110" viewBox="0 0 176 110" fill="none" xmlns="http://www.w3.org/2000/svg">
<path d="M38.5359 109.254C38.5359 109.082 39.9163 105.803 41.6418 101.892C43.3673 98.0387 45.1503 93.8975 45.6105 92.7472L46.5307 90.5616H24.0993H1.72549V89.2387C1.72549 88.491 2.76078 81.4165 4.02614 73.4217C5.2915 65.4844 6.3268 58.8125 6.3268 58.64C6.3268 58.4674 4.88889 58.3524 3.1634 58.3524C0.287582 58.3524 0 58.2374 0 57.087C0 55.8792 4.02614 30.1119 5.00392 24.7053L5.46405 22.4047L9.31765 22.2321L13.2288 22.0596L15.0693 18.206C17.6 13.087 23.6967 6.93279 28.7582 4.40207C34.5098 1.58377 38.9961 0.605996 46.5882 0.663512C52.5124 0.663512 64.0732 2.0439 64.8209 2.79162C65.1085 3.0792 63.0379 17.6308 62.2902 20.8517L62.0026 22.1171H119.001C150.348 22.1171 176 21.887 176 22.1171C176 22.3472 169.386 30.8596 161.333 40.4648L146.667 57.8348L154.719 73.8243C159.09 82.6243 162.541 89.9864 162.369 90.2165C162.139 90.389 145.114 90.5616 124.465 90.5616H86.9072L82.3059 100.052L77.7046 109.542H58.149C47.3359 109.542 38.5359 109.427 38.5359 109.254ZM75.749 87.5132C78.6824 81.474 84.2614 69.7406 88.1725 61.5158C92.1412 53.291 96.5124 43.9733 98.0078 40.8674C99.6183 37.4165 100.884 35.3459 101.171 35.691C101.459 35.9785 103.932 40.9825 106.693 46.8491C111.064 56.1093 111.582 57.6047 110.949 58.64C110.431 59.5027 100.021 72.1563 95.017 78.0805C94.2118 79.0008 94.6719 79.0583 103.414 79.0583H112.675L116.068 74.572C121.187 67.9001 120.727 67.9576 123.66 73.8818L126.191 79.0583H135.278C140.282 79.0583 144.366 78.9433 144.366 78.7707C144.366 78.5982 141.893 73.4792 138.787 67.3825L133.265 56.2243L142.525 45.2387C147.644 39.1995 151.843 34.0805 151.843 33.908C151.843 33.7354 147.587 33.6204 142.41 33.6204H132.978L128.492 39.9472C126.018 43.3982 123.948 46.1589 123.833 46.0439C123.718 45.9289 122.682 43.1681 121.475 39.8897L119.289 33.908L101.746 33.7354L84.2039 33.6204L80.868 41.2125C78.9699 45.4112 76.3242 51.4504 74.9438 54.6138C73.5634 57.7772 71.9529 61.4008 71.4353 62.6086L70.3425 64.9093L69.6523 51.9681C69.3072 44.8936 68.8471 37.8766 68.6745 36.3812L68.3294 33.6204H53.0876H37.8458L38.2484 32.0674C39.2837 27.8112 41.9869 25.8557 46.7033 25.9132C48.5438 25.9132 50.0392 25.9132 50.0392 25.9132C50.0392 25.8557 50.5569 22.9223 51.1895 19.2988C51.8222 15.6753 52.1673 12.5119 51.9373 12.1668C51.4196 11.304 39.8013 12.0517 36.8105 13.1446C29.0458 16.0204 24.2719 22.1746 22.719 31.4923L22.3739 33.6204H18.7503H15.1268L14.149 38.7393C13.6314 41.5576 13.2288 44.5485 13.2288 45.3537C13.2288 46.7916 13.3438 46.8491 16.3922 46.8491C18.2902 46.8491 19.5556 47.0792 19.5556 47.4818C19.5556 47.8269 18.9229 52.1406 18.1176 57.087C15.2993 74.3995 14.9542 76.6426 14.9542 77.8504C14.9542 79.0008 15.1843 79.0583 23.2366 79.0583H31.5765L31.9791 76.355C32.1516 74.8021 33.302 67.67 34.4523 60.3655L36.5804 47.1367L45.0353 46.9642L53.4327 46.7916L53.0876 48.9772C52.915 50.1851 51.9373 56.4544 50.902 62.9537C49.8667 69.4531 48.8889 75.7223 48.7163 76.9302L48.3712 79.0583H56.1359C60.3922 79.0583 63.8431 79.1733 63.8431 79.2884C63.8431 79.4034 62.1752 83.257 60.1621 87.8008C58.149 92.287 56.366 96.6008 56.1359 97.3485L55.7333 98.6138H63.0954H70.4575L75.749 87.5132Z" fill="#FFCE00"/>
</svg>
