<svg width="20" height="15" viewBox="0 0 20 15" fill="none" xmlns="http://www.w3.org/2000/svg">
<path d="M11.033 14.735C10.711 14.735 10.403 14.637 10.109 14.441C9.81505 14.259 9.57004 14.021 9.37404 13.727C9.19204 13.433 9.10104 13.139 9.10104 12.845C9.10104 12.509 9.24104 12.152 9.52104 11.774C9.80104 11.396 10.13 11.025 10.508 10.661C10.9 10.283 11.243 9.96101 11.537 9.69501H2.86404C2.06604 9.69501 1.49904 9.63201 1.16304 9.50601C0.827045 9.38001 0.561045 9.17001 0.365045 8.87601C0.169045 8.59601 0.0710449 8.20401 0.0710449 7.70001C0.0710449 7.19601 0.162045 6.80401 0.344045 6.52401C0.540045 6.24401 0.806045 6.03401 1.14204 5.89401C1.47804 5.76801 2.05204 5.70501 2.86404 5.70501H11.537L10.508 4.71801C9.93405 4.15801 9.55604 3.73101 9.37404 3.43701C9.19204 3.12901 9.10104 2.83501 9.10104 2.55501C9.10104 2.26101 9.19204 1.96701 9.37404 1.67301C9.55604 1.37901 9.79405 1.14101 10.088 0.959009C10.396 0.763009 10.711 0.665009 11.033 0.665009C11.313 0.665009 11.614 0.756009 11.936 0.938009C12.258 1.10601 12.636 1.40001 13.07 1.82001L19.118 7.70001L13.196 13.454C12.692 13.93 12.279 14.259 11.957 14.441C11.635 14.637 11.327 14.735 11.033 14.735Z" fill="#15002C"/>
</svg>
