<svg width="20" height="15" viewBox="0 0 20 15" fill="none" xmlns="http://www.w3.org/2000/svg">
<path d="M11.033 14.735C10.711 14.735 10.403 14.637 10.109 14.441C9.815 14.259 9.57 14.021 9.374 13.727C9.192 13.433 9.101 13.139 9.101 12.845C9.101 12.509 9.241 12.152 9.521 11.774C9.801 11.396 10.13 11.025 10.508 10.661C10.9 10.283 11.243 9.961 11.537 9.695H2.864C2.066 9.695 1.499 9.632 1.163 9.506C0.827 9.38 0.561 9.17 0.365 8.876C0.169 8.596 0.0710001 8.204 0.0710001 7.7C0.0710001 7.196 0.162 6.804 0.344 6.524C0.54 6.244 0.806 6.034 1.142 5.894C1.478 5.768 2.052 5.705 2.864 5.705H11.537L10.508 4.718C9.934 4.158 9.556 3.731 9.374 3.437C9.192 3.129 9.101 2.835 9.101 2.555C9.101 2.261 9.192 1.967 9.374 1.673C9.556 1.379 9.794 1.141 10.088 0.958999C10.396 0.762999 10.711 0.664999 11.033 0.664999C11.313 0.664999 11.614 0.755999 11.936 0.937999C12.258 1.106 12.636 1.4 13.07 1.82L19.118 7.7L13.196 13.454C12.692 13.93 12.279 14.259 11.957 14.441C11.635 14.637 11.327 14.735 11.033 14.735Z" fill="#F9CA01"/>
</svg>
